HIERARCHY
ROOT Pelvis
{
	OFFSET 0.000000 0.000000 0.000000
	CHANNELS 6 Xposition Yposition Zposition Xrotation Yrotation Zrotation
	JOINT LeftUpLeg_virtual
	{
		OFFSET 0.000000 0.000000 0.000000
		CHANNELS 3 Xrotation Yrotation Zrotation
		JOINT LeftUpLeg
		{
			OFFSET 18.735201 -5.666702 -4.541200
			CHANNELS 3 Xrotation Yrotation Zrotation
			JOINT LeftLeg
			{
				OFFSET -0.021200 -31.938179 0.493100
				CHANNELS 3 Xrotation Yrotation Zrotation
				JOINT LeftFoot
				{
					OFFSET 0.021200 -31.938179 -4.336299
					CHANNELS 3 Xrotation Yrotation Zrotation
					JOINT LeftToeBase
					{
						OFFSET 0.943001 -26.722000 15.023500
						CHANNELS 3 Xrotation Yrotation Zrotation
						End Site
						{
							OFFSET 0 0 0
						}
					}
				}
			}
		}
	}
	JOINT RightUpLeg_virtual
	{
		OFFSET 0.000000 0.000000 0.000000
		CHANNELS 3 Xrotation Yrotation Zrotation
		JOINT RightUpLeg
		{
			OFFSET -18.735201 -5.666702 -4.541200
			CHANNELS 3 Xrotation Yrotation Zrotation
			JOINT RightLeg
			{
				OFFSET 0.018946 -31.938133 0.493100
				CHANNELS 3 Xrotation Yrotation Zrotation
				JOINT RightFoot
				{
					OFFSET -0.018946 -31.938126 -4.336299
					CHANNELS 3 Xrotation Yrotation Zrotation
					JOINT RightToeBase
					{
						OFFSET -0.943001 -26.722004 15.023500
						CHANNELS 3 Xrotation Yrotation Zrotation
						End Site
						{
							OFFSET 0 0 0
						}
					}
				}
			}
		}
	}
	JOINT Hips_virtual
	{
		OFFSET 0.000000 0.000000 0.000000
		CHANNELS 3 Xrotation Yrotation Zrotation
		JOINT Hips
		{
			OFFSET -0.000000 -0.000000 -0.000000
			CHANNELS 3 Xrotation Yrotation Zrotation
			JOINT Spine
			{
				OFFSET 0.000000 10.199997 -0.299500
				CHANNELS 3 Xrotation Yrotation Zrotation
				JOINT Spine1
				{
					OFFSET 0.000000 11.900002 -1.516600
					CHANNELS 3 Xrotation Yrotation Zrotation
					JOINT Spine2
					{
						OFFSET 0.000000 13.600006 -2.842500
						CHANNELS 3 Xrotation Yrotation Zrotation
						JOINT Neck_virtual
						{
							OFFSET 0.000000 0.000000 0.000000
							CHANNELS 3 Xrotation Yrotation Zrotation
							JOINT Neck
							{
								OFFSET 0.000000 9.624100 -2.890100
								CHANNELS 3 Xrotation Yrotation Zrotation
								JOINT Head
								{
									OFFSET 0.000000 14.068802 -1.351900
									CHANNELS 3 Xrotation Yrotation Zrotation
									End Site
									{
										OFFSET 0 0 0
									}
								}
							}
						}
						JOINT LeftShoulder_virtual
						{
							OFFSET 0.000000 0.000000 0.000000
							CHANNELS 3 Xrotation Yrotation Zrotation
							JOINT LeftShoulder
							{
								OFFSET 15.263000 10.923401 -0.547700
								CHANNELS 3 Xrotation Yrotation Zrotation
								JOINT LeftArm
								{
									OFFSET 25.438599 -2.830597 -13.032500
									CHANNELS 3 Xrotation Yrotation Zrotation
									JOINT LeftForeArm
									{
										OFFSET 29.960503 0.000000 0.000000
										CHANNELS 3 Xrotation Yrotation Zrotation
										JOINT LeftHand
										{
											OFFSET 27.849251 0.000000 0.000000
											CHANNELS 3 Xrotation Yrotation Zrotation
											End Site
											{
												OFFSET 0 0 0
											}
										}
									}
								}
							}
						}
						JOINT RightShoulder_virtual
						{
							OFFSET 0.000000 0.000000 0.000000
							CHANNELS 3 Xrotation Yrotation Zrotation
							JOINT RightShoulder
							{
								OFFSET -15.263000 10.923401 -0.547700
								CHANNELS 3 Xrotation Yrotation Zrotation
								JOINT RightArm
								{
									OFFSET -25.438599 -2.830597 -13.032500
									CHANNELS 3 Xrotation Yrotation Zrotation
									JOINT RightForeArm
									{
										OFFSET -29.960503 0.000000 0.000000
										CHANNELS 3 Xrotation Yrotation Zrotation
										JOINT RightHand
										{
											OFFSET -27.849251 0.000000 0.000000
											CHANNELS 3 Xrotation Yrotation Zrotation
											End Site
											{
												OFFSET 0 0 0
											}
										}
									}
								}
							}
						}
					}
				}
			}
		}
	}
}
MOTION
Frames: 5
Frame Time: 0.03333333
-4.517290 87.896095 0.981176 0.000000 0.000000 0.000000 -3.163120 -6.190821 4.947287 -68.397309 4.770721 7.827690 55.102223 -1.089349 -5.063305 4.508724 0.067317 -0.826220 0.000000 0.000000 0.000000 -3.163120 -6.190821 4.947287 -22.278076 -7.214952 -6.274426 56.965311 7.111512 3.503378 -31.167526 3.779803 -9.254457 0.000000 0.000000 0.000000 -3.163120 -6.190821 4.947287 -0.000001 0.000000 0.000000 13.732091 0.081874 -3.959533 2.722913 0.133859 -0.943517 0.000000 0.000000 0.000000 2.720023 0.135222 -0.952573 1.097404 0.148443 0.018805 0.000000 0.000000 0.000000 2.720023 0.135222 -0.952573 0.619247 -1.200854 -10.994817 17.248876 -24.148535 -54.371581 -0.000005 -28.855370 0.000002 0.000000 0.000000 0.000000 2.720023 0.135222 -0.952573 0.265367 6.336861 17.304042 14.561910 17.232543 47.386070 0.000008 42.148964 -0.000023 0.000000 0.000000 0.000000 
-4.563196 87.579460 1.107248 0.000000 0.000000 0.000000 -3.045633 -6.194423 4.774420 -67.772299 4.497785 7.111280 50.062835 -1.145210 -4.748944 7.890667 0.105332 0.665008 0.000000 0.000000 0.000000 -3.045633 -6.194423 4.774420 -22.592425 -7.327138 -6.102913 57.706247 7.189546 3.501480 -31.676389 3.833974 -9.385535 0.000000 0.000000 0.000000 -3.045633 -6.194423 4.774420 0.000000 0.000000 0.000000 13.850221 0.249882 -3.645773 2.787336 0.158804 -0.935779 0.000000 0.000000 0.000000 2.784215 0.161847 -0.946242 1.105206 0.146351 0.005817 0.000000 0.000000 0.000000 2.784215 0.161847 -0.946242 0.629832 -1.288736 -11.002615 17.403969 -24.407273 -54.849206 0.000001 -28.505436 -0.000002 0.000000 0.000000 0.000000 2.784215 0.161847 -0.946242 0.222702 6.699102 17.382114 14.920427 17.286565 46.635995 -0.000001 43.116040 -0.000011 0.000000 0.000000 0.000000 
-4.607840 87.255821 1.243013 0.000000 0.000000 0.000000 -2.865144 -6.308121 4.542595 -67.038717 4.191393 6.456723 44.921676 -1.803541 -4.331350 11.951988 0.228795 2.265607 0.000000 0.000000 0.000000 -2.865144 -6.308121 4.542595 -22.968246 -7.462360 -5.883411 58.394825 7.384340 3.503144 -32.111294 3.899353 -9.575515 0.000000 0.000000 0.000000 -2.865144 -6.308121 4.542595 0.000000 -0.000001 0.000000 13.964205 0.445658 -3.305938 2.847388 0.187926 -0.917955 0.000000 0.000000 0.000000 2.844044 0.192474 -0.929923 1.111088 0.147420 -0.009034 0.000000 0.000000 0.000000 2.844044 0.192474 -0.929923 0.640729 -1.333960 -11.005096 17.374242 -24.472988 -55.481630 -0.000005 -28.210918 -0.000012 0.000000 0.000000 0.000000 2.844044 0.192474 -0.929923 0.180821 7.065461 17.444803 15.301587 17.417512 45.815037 0.000002 44.069525 0.000007 0.000000 0.000000 0.000000 
-4.657734 87.031883 1.245152 0.000000 0.000000 0.000000 -2.601049 -6.442874 4.352927 -66.384275 3.705536 6.267050 41.101534 -1.817316 -3.918380 14.650064 0.249752 2.407019 0.000000 0.000000 0.000000 -2.601049 -6.442874 4.352927 -23.471281 -7.591349 -5.665767 58.831657 7.588186 3.501198 -32.250149 3.938727 -9.782654 0.000000 0.000000 0.000000 -2.601049 -6.442874 4.352927 0.000000 0.000000 0.000000 14.080743 0.611579 -3.042161 2.901650 0.218671 -0.897720 0.000000 0.000000 0.000000 2.898105 0.224245 -0.911136 1.114186 0.149852 -0.022533 0.000000 0.000000 0.000000 2.898105 0.224245 -0.911136 0.651115 -1.376265 -11.000301 17.231058 -24.456445 -56.127612 0.000003 -27.965516 0.000004 0.000000 0.000000 0.000000 2.898105 0.224245 -0.911136 0.141481 7.412044 17.493919 15.609456 17.553243 45.040275 0.000019 44.952658 -0.000022 0.000000 0.000000 0.000000 
-4.724894 86.932999 1.101780 0.000000 0.000000 0.000000 -2.225059 -6.531655 4.252670 -65.849225 3.267748 6.277191 38.407933 -1.646897 -3.587705 15.894122 0.179762 1.907056 0.000000 0.000000 0.000000 -2.225059 -6.531655 4.252670 -24.106398 -7.705517 -5.470377 58.968418 7.729702 3.497416 -32.081368 3.944475 -9.980011 0.000000 0.000000 0.000000 -2.225059 -6.531655 4.252670 0.000000 0.000000 0.000000 14.201037 0.724208 -2.900399 2.948586 0.244172 -0.882540 0.000000 0.000000 0.000000 2.944868 0.250127 -0.897077 1.113567 0.152250 -0.031981 0.000000 0.000000 0.000000 2.944868 0.250127 -0.897077 0.660199 -1.456143 -10.992153 17.052646 -24.459754 -56.653294 0.000008 -27.764833 0.000009 0.000000 0.000000 0.000000 2.944868 0.250127 -0.897077 0.106661 7.709673 17.533394 15.764212 17.647310 44.412957 0.000001 45.711813 0.000023 0.000000 0.000000 0.000000 
